<svg xmlns="http://www.w3.org/2000/svg" width="14.864" height="21.913" viewBox="0 0 14.864 21.913">
  <g id="noun_Fire_818" transform="translate(-17.53 -4.395)">
    <path id="Path_160" data-name="Path 160" d="M20,13.485c4.078-4.045,4.673-7.443,3.3-9.09,0,0,10.38,4.266,4.274,14.159-1.045,1.68-3.655,3.664-2.291,7.754C25.285,26.308,12.225,22.651,20,13.485Z" transform="translate(0 0)" fill="#444"/>
    <path id="Path_161" data-name="Path 161" d="M53.565,53.064c-.223-.83-1.219-2.637,1.817-6.233C57,44.915,58.115,40.706,57.574,39.7c0,0,5.182,6.844-.815,10.942C53.2,53.08,53.565,53.064,53.565,53.064Z" transform="translate(-27.259 -26.958)" fill="#444"/>
  </g>
</svg>
