<svg xmlns="http://www.w3.org/2000/svg" width="35.692" height="34.833" viewBox="0 0 35.692 34.833">
  <path id="plus" d="M29.611,4.955a17.659,17.659,0,0,0-24.531,0,16.622,16.622,0,0,0,0,23.924,17.659,17.659,0,0,0,24.531,0,16.622,16.622,0,0,0,0-23.924ZM17.346,31.19A14.474,14.474,0,0,1,2.71,16.917,14.474,14.474,0,0,1,17.346,2.643,14.474,14.474,0,0,1,31.981,16.917,14.474,14.474,0,0,1,17.346,31.19Zm1.355-15.6h6.1v2.643H18.7v5.947H15.99V18.237h-6.1V15.594h6.1V9.646H18.7Zm0,0" transform="translate(0.501 0.5)" fill="#fff" stroke="#fff" stroke-width="1"/>
</svg>
