<svg xmlns="http://www.w3.org/2000/svg" width="37.706" height="27.904" viewBox="0 0 37.706 27.904">
  <g id="ic_people_48px" transform="translate(77 -377)">
    <path id="Path_152" data-name="Path 152" d="M27.708,21.959c2.836,0,5.125-2.681,5.125-5.979S30.545,10,27.708,10s-5.142,2.681-5.142,5.979S24.872,21.959,27.708,21.959ZM14,21.959c2.836,0,5.125-2.681,5.125-5.979S16.834,10,14,10s-5.142,2.681-5.142,5.979S11.161,21.959,14,21.959Zm0,3.986c-4,0-12,2.332-12,6.976V37.9H25.995V32.921C25.995,28.277,18,25.945,14,25.945Zm13.711,0a14.559,14.559,0,0,0-1.654.11,8.713,8.713,0,0,1,3.368,6.866V37.9H39.706V32.921C39.706,28.277,31.71,25.945,27.708,25.945Z" transform="translate(-79 367)" fill="#fff"/>
  </g>
</svg>
